#!OML:ASF F:\Work\Patient Classification 1\justin\Session 1\justin.ASF
:FULLY-SPECIFIED
:DEGREES
3208
root 0.883715 16.9011 0.540888 0.893151 48.532 0.0423363
lowerback 14.0483 -2.794 -3.95876
upperback -0.732214 -4.20979 1.87467
thorax -8.2449 -1.81617 5.11799
lowerneck 0.214734 -13.9432 -21.3485
upperneck 2.41392 -20.138 25.7197
head 5.71188 -9.88763 10.0058
rclavicle 6.26172e-014 -1.25234e-014
rhumerus -5.35776 -6.06102 -74.9788
rradius 144.298
rwrist -8.8097
rhand -16.5932 36.58
rfingers 7.12502
rthumb 9.62786 6.82
lclavicle 6.26172e-014 -1.25234e-014
lhumerus -5.83722 -35.4665 101.513
lradius 126.286
lwrist 1.2667
lhand -11.9688 6.50043
lfingers 7.12502
lthumb 14.087 36.003
rfemur -28.4624 -6.93702 1.62259
rtibia 38.0907
rfoot -1.53407 -7.07941
rtoes -17.1877
lfemur 1.5434 0.645977 -8.58219
ltibia 32.846
lfoot -28.5133 -0.646156
ltoes -25.4973
3209
root 0.883469 16.9109 0.533245 0.503383 48.4262 -0.258326
lowerback 13.8199 -2.68012 -4.085
upperback -0.688794 -4.06841 1.90512
thorax -8.07312 -1.7497 5.17575
lowerneck 0.13647 -14.0601 -21.327
upperneck 2.57966 -20.3119 25.624
head 5.80161 -9.96235 9.92922
rclavicle 9.76778e-014 -2.78299e-015
rhumerus -5.57389 -6.69705 -74.6186
rradius 144.345
rwrist -8.73144
rhand -17.3847 35.4849
rfingers 7.12502
rthumb 8.86412 5.69111
lclavicle 9.76778e-014 -2.78299e-015
lhumerus -5.74034 -35.6631 101.342
lradius 126.185
lwrist 1.15193
lhand -12.0115 6.35759
lfingers 7.12502
lthumb 14.0459 35.863
rfemur -27.9973 -6.36226 1.74916
rtibia 37.4454
rfoot -1.66122 -7.4123
rtoes -16.0027
lfemur 1.76718 1.0123 -8.29653
ltibia 32.7027
lfoot -28.4946 -0.782304
ltoes -25.7462
3210
root 0.88217 16.9166 0.522913 0.00865909 48.3975 -0.627311
lowerback 13.6691 -2.62932 -4.12987
upperback -0.63122 -3.9986 1.94372
thorax -7.92728 -1.7202 5.21552
lowerneck 0.304551 -14.0921 -21.3888
upperneck 2.54051 -20.3937 25.7405
head 5.80332 -10.0138 9.97663
rclavicle 2.60532e-014 3.97569e-016
rhumerus -6.0273 -7.10714 -74.5198
rradius 144.598
rwrist -8.64227
rhand -17.6774 35.2157
rfingers 7.12502
rthumb 8.58164 5.41014
lclavicle 2.60532e-014 3.97569e-016
lhumerus -5.62337 -35.7362 101.107
lradius 126.244
lwrist 1.62632
lhand -11.3224 6.99437
lfingers 7.12502
lthumb 14.7099 36.4525
rfemur -27.4777 -5.97223 1.95622
rtibia 36.891
rfoot -1.75343 -7.72695
rtoes -16.8655
lfemur 1.98515 1.28696 -7.94992
ltibia 32.6375
lfoot -28.5204 -0.980009
ltoes -26.0332
3211
root 0.889338 16.9118 0.493174 0.126423 48.6292 -0.179824
lowerback 13.74 -2.72532 -4.3511
upperback -0.682183 -4.18104 1.77362
thorax -7.99937 -1.79957 5.19954
lowerneck 0.481016 -14.0749 -21.436
upperneck 2.52875 -20.3977 25.7236
head 5.77262 -10.0298 9.99125
rclavicle -5.53118e-014 4.37326e-015
rhumerus -6.64286 -7.38887 -74.5229
rradius 144.766
rwrist -8.82119
rhand -17.6807 35.1825
rfingers 7.12502
rthumb 8.57843 5.37676
lclavicle -5.53118e-014 4.37326e-015
lhumerus -5.70965 -35.6332 100.9
lradius 126.508
lwrist 2.202
lhand -10.4018 8.16073
lfingers 7.12502
lthumb 15.5966 37.5519
rfemur -26.8593 -6.37246 1.54467
rtibia 36.4065
rfoot -1.65085 -7.58758
rtoes -18.7422
lfemur 2.10325 1.1639 -8.37834
ltibia 32.6687
lfoot -28.5836 -0.964971
ltoes -26.0565
3212
root 0.891384 16.9052 0.462867 0.151073 48.8197 0.043203
lowerback 13.7574 -2.85484 -4.50931
upperback -0.75259 -4.3904 1.67856
thorax -8.0575 -1.89314 5.23078
lowerneck 0.692824 -14.05 -21.3583
upperneck 2.51728 -20.3734 25.4971
head 5.68628 -10.0359 9.92196
rclavicle -1.86361e-014 -1.2921e-014
rhumerus -6.94681 -7.54432 -74.5518
rradius 144.687
rwrist -8.987
rhand -17.8288 34.8786
rfingers 7.12502
rthumb 8.43554 5.06702
lclavicle -1.86361e-014 -1.2921e-014
lhumerus -5.7695 -35.3125 100.546
lradius 126.861
lwrist 2.72172
lhand -9.6936 8.99316
lfingers 7.12502
lthumb 16.2787 38.3298
rfemur -26.386 -6.48942 1.29245
rtibia 35.99
rfoot -1.68106 -7.62649
rtoes -19.9941
lfemur 2.11558 0.910929 -8.66159
ltibia 32.7878
lfoot -28.7103 -0.910201
ltoes -25.6726
3213
root 0.882514 16.8979 0.446224 -0.277283 48.8923 -0.436447
lowerback 13.6086 -2.92957 -4.47446
upperback -0.755623 -4.47072 1.77105
thorax -7.96191 -1.93605 5.31403
lowerneck 0.633448 -14.0643 -21.345
upperneck 2.69376 -20.4002 25.3466
head 5.73334 -10.0424 9.85804
rclavicle -2.75814e-014 4.57205e-015
rhumerus -6.66035 -7.85609 -74.4749
rradius 144.308
rwrist -9.42673
rhand -17.6197 34.3331
rfingers 7.12502
rthumb 8.63734 4.52982
lclavicle -2.75814e-014 4.57205e-015
lhumerus -5.56329 -34.871 100.001
lradius 127.016
lwrist 3.19296
lhand -10.1707 7.91687
lfingers 7.12502
lthumb 15.8193 37.2905
rfemur -26.1062 -5.98268 1.5524
rtibia 35.6518
rfoot -2.00645 -8.09778
rtoes -20.5098
lfemur 2.01644 0.849071 -8.31227
ltibia 32.9925
lfoot -28.8474 -0.91041
ltoes -25.5085
3214
root 0.875756 16.8839 0.433128 -0.523964 49.0706 -0.519775
lowerback 13.5913 -2.9818 -4.69051
upperback -0.719274 -4.57004 1.8179
thorax -7.88066 -1.97848 5.50107
lowerneck 0.435565 -14.0549 -21.6137
upperneck 2.85201 -20.3993 25.4876
head 5.86361 -10.026 9.93287
rclavicle -7.21775e-014 -1.15295e-014
rhumerus -6.84573 -8.05424 -74.3462
rradius 144.307
rwrist -9.76875
rhand -17.4263 34.1056
rfingers 7.12502
rthumb 8.82402 4.3101
lclavicle -7.21775e-014 -1.15295e-014
lhumerus -5.19242 -34.401 99.6003
lradius 127.376
lwrist 4.02353
lhand -10.3215 7.16259
lfingers 7.12502
lthumb 15.674 36.5477
rfemur -25.7069 -5.68587 1.49056
rtibia 35.3917
rfoot -2.33853 -8.38988
rtoes -20.7828
lfemur 1.97241 0.831766 -8.22421
ltibia 33.2667
lfoot -29.0326 -1.0477
ltoes -25.294
3215
root 0.870805 16.8662 0.411974 -0.656611 49.3115 -0.36188
lowerback 13.7523 -3.05785 -4.90283
upperback -0.685863 -4.71418 1.79061
thorax -7.90374 -2.03942 5.629
lowerneck 0.267098 -14.0561 -22.0257
upperneck 2.87351 -20.4085 25.7549
head 5.98416 -10.02 10.0743
rclavicle 8.06879e-014 -1.47101e-014
rhumerus -7.51425 -8.12148 -74.2161
rradius 144.727
rwrist -9.87576
rhand -17.582 34.2119
rfingers 7.12502
rthumb 8.67376 4.41008
lclavicle 8.06879e-014 -1.47101e-014
lhumerus -4.89455 -34.0372 99.2985
lradius 127.858
lwrist 4.91655
lhand -9.70121 8.33996
lfingers 7.12502
lthumb 16.2714 37.6772
rfemur -25.2889 -5.75342 1.27038
rtibia 35.2416
rfoot -2.39223 -8.46937
rtoes -20.9571
lfemur 1.9461 0.76943 -8.33684
ltibia 33.5941
lfoot -29.3029 -1.01946
ltoes -25.7287
3216
root 0.861858 16.8444 0.392942 -0.966157 49.4632 -0.395396
lowerback 13.9043 -3.09638 -4.99275
upperback -0.614481 -4.78996 1.72779
thorax -7.90106 -2.07478 5.63448
lowerneck 0.19933 -14.069 -22.1564
upperneck 2.81561 -20.4199 25.8708
head 6.0122 -10.0223 10.1271
rclavicle -1.15811e-013 -5.96354e-016
rhumerus -7.92851 -8.47795 -74.0439
rradius 144.859
rwrist -10.0382
rhand -17.7029 34.3134
rfingers 7.12502
rthumb 8.5571 4.50684
lclavicle -1.15811e-013 -5.96354e-016
lhumerus -4.97279 -33.8212 98.9823
lradius 128.115
lwrist 5.44895
lhand -9.62925 9.35024
lfingers 7.12502
lthumb 16.3406 38.6818
rfemur -24.963 -5.64169 1.17813
rtibia 35.2268
rfoot -2.44923 -8.59212
rtoes -20.3879
lfemur 1.93185 0.81837 -8.2532
ltibia 34.0096
lfoot -29.6169 -0.901952
ltoes -26.9133
3217
root 0.851108 16.8235 0.379726 -1.39377 49.5144 -0.593641
lowerback 13.9022 -3.07321 -5.13992
upperback -0.459263 -4.77743 1.7369
thorax -7.72056 -2.07363 5.71583
lowerneck 0.359553 -13.979 -22.1883
upperneck 2.47903 -20.2893 26.1268
head 5.8905 -9.97581 10.26
rclavicle -7.13761e-015 4.42296e-015
rhumerus -8.12019 -8.89199 -73.8425
rradius 144.783
rwrist -10.0906
rhand -17.8215 34.2497
rfingers 7.12502
rthumb 8.44261 4.43849
lclavicle -7.13761e-015 4.42296e-015
lhumerus -5.07403 -33.5779 98.7312
lradius 127.897
lwrist 4.92617
lhand -10.4663 7.79638
lfingers 7.12502
lthumb 15.5345 37.1924
rfemur -24.762 -5.27619 1.18564
rtibia 35.3496
rfoot -2.62875 -8.67032
rtoes -20.3771
lfemur 1.90485 0.741743 -8.06615
ltibia 34.5385
lfoot -29.9761 -1.12193
ltoes -26.8864
3218
root 0.838888 16.7999 0.351759 -1.67351 49.5293 -0.883744
lowerback 13.9143 -3.07515 -5.03526
upperback -0.428875 -4.76032 1.76039
thorax -7.70281 -2.07032 5.67826
lowerneck 0.472674 -13.9444 -22.2764
upperneck 2.23253 -20.2395 26.3334
head 5.82357 -9.96446 10.3646
rclavicle 4.19529e-014 3.52843e-015
rhumerus -8.39844 -9.09691 -73.6674
rradius 144.726
rwrist -9.7343
rhand -18.2635 34.1213
rfingers 7.12502
rthumb 8.01599 4.29333
lclavicle 4.19529e-014 3.52843e-015
lhumerus -4.87663 -33.2286 98.4938
lradius 127.797
lwrist 4.56154
lhand -10.4146 7.2774
lfingers 7.12502
lthumb 15.5843 36.6695
rfemur -24.9298 -5.02415 1.26624
rtibia 35.608
rfoot -2.7205 -8.7022
rtoes -20.8315
lfemur 1.58408 0.442299 -7.93836
ltibia 35.1477
lfoot -30.2646 -1.31252
ltoes -26.1378
